<?xml version="1.0" encoding="UTF-8" standalone="no"?>
<!-- Creator: CorelDRAW -->

<svg
   xml:space="preserve"
   width="6.82666in"
   height="6.82666in"
   style="shape-rendering:geometricPrecision; text-rendering:geometricPrecision; image-rendering:optimizeQuality; fill-rule:evenodd; clip-rule:evenodd"
   viewBox="0 0 6.82666 6.82666"
   version="1.1"
   id="svg11"
   sodipodi:docname="reshot-icon-stacked-graph.svg"
   inkscape:version="1.3 (0e150ed6c4, 2023-07-21)"
   xmlns:inkscape="http://www.inkscape.org/namespaces/inkscape"
   xmlns:sodipodi="http://sodipodi.sourceforge.net/DTD/sodipodi-0.dtd"
   xmlns="http://www.w3.org/2000/svg"
   xmlns:svg="http://www.w3.org/2000/svg"><sodipodi:namedview
   id="namedview11"
   pagecolor="#ffffff"
   bordercolor="#111111"
   borderopacity="1"
   inkscape:showpageshadow="0"
   inkscape:pageopacity="0"
   inkscape:pagecheckerboard="1"
   inkscape:deskcolor="#d1d1d1"
   inkscape:document-units="in"
   inkscape:zoom="1.1871349"
   inkscape:cx="327.67969"
   inkscape:cy="529.8471"
   inkscape:window-width="1920"
   inkscape:window-height="988"
   inkscape:window-x="0"
   inkscape:window-y="0"
   inkscape:window-maximized="1"
   inkscape:current-layer="Layer_x0020_1" />&#10; <defs
   id="defs1">&#10;  <style
   type="text/css"
   id="style1">&#10;   <![CDATA[
    .fil5 {fill:none}
    .fil2 {fill:#63CBE5}
    .fil3 {fill:#AED581}
    .fil0 {fill:#EBE5DF}
    .fil4 {fill:#F45A52}
    .fil1 {fill:#333333;fill-rule:nonzero}
   ]]>&#10;  </style>&#10; </defs>&#10; <g
   id="Layer_x0020_1"
   inkscape:label="Layer 1">&#10;  <metadata
   id="CorelCorpID_0Corel-Layer" />&#10;  <rect
   class="fil0"
   x="0.42424297"
   y="0.44069549"
   width="6.0032434"
   height="6.0204797"
   id="rect1"
   style="stroke-width:1" />&#10;  <path
   class="fil1"
   d="M 0.28780098,0.16702931 H 6.5639291 6.7003698 V 0.30386178 6.5980095 6.7348419 H 6.5639291 0.28780098 0.1513603 V 6.5980095 0.30386178 0.16702931 Z M 6.4274872,0.44069555 H 0.42424302 V 6.4611757 H 6.4274872 Z"
   id="path1"
   style="stroke-width:1" />&#10;  <polygon
   class="fil1"
   points="3.84,3.41333 5.81333,3.41333 5.81333,3.52 3.84,3.52 "
   id="polygon1"
   transform="matrix(1.279104,0,0,1.2827764,-0.94013875,-0.92760355)"
   style="stroke-width:0.780677" />&#10;  <polygon
   class="fil1"
   points="4.32,1.06666 4.32,5.86666 4.21333,5.86666 4.21333,1.06666 "
   id="polygon2"
   transform="matrix(1.279104,0,0,1.2827764,-0.94013875,-0.92760355)"
   style="stroke-width:0.780677" />&#10;  <polygon
   class="fil1"
   points="5.17334,1.06666 5.17334,5.86666 5.06667,5.86666 5.06667,1.06666 "
   id="polygon3"
   transform="matrix(1.279104,0,0,1.2827764,-0.94013875,-0.92760355)"
   style="stroke-width:0.780677" />&#10;  <polygon
   class="fil1"
   points="3.84,5.12 5.81333,5.12 5.81333,5.22667 3.84,5.22667 "
   id="polygon4"
   transform="matrix(1.279104,0,0,1.2827764,-0.94013875,-0.92760355)"
   style="stroke-width:0.780677" />&#10;  <polygon
   class="fil1"
   points="3.84,4.26666 5.81333,4.26666 5.81333,4.37333 3.84,4.37333 "
   id="polygon5"
   transform="matrix(1.279104,0,0,1.2827764,-0.94013875,-0.92760355)"
   style="stroke-width:0.780677" />&#10;  <polygon
   class="fil1"
   points="1.01333,2.55999 5.81333,2.55999 5.81333,2.66666 1.01333,2.66666 "
   id="polygon6"
   transform="matrix(1.279104,0,0,1.2827764,-0.94013875,-0.92760355)"
   style="stroke-width:0.780677" />&#10;  <polygon
   class="fil1"
   points="1.01333,1.70666 5.81333,1.70666 5.81333,1.81333 1.01333,1.81333 "
   id="polygon7"
   transform="matrix(1.279104,0,0,1.2827764,-0.94013875,-0.92760355)"
   style="stroke-width:0.780677" />&#10;  <path
   class="fil1"
   d="M 0.82026645,3.4509357 H 1.5157408 1.6521816 V 3.5877681 6.4611873 6.5980198 H 1.5157408 0.82026645 0.68382567 V 6.4611873 3.5877681 3.4509357 Z M 1.3793001,3.7246018 H 0.95670711 V 6.3243536 H 1.3793001 Z"
   id="path7"
   style="stroke-width:1" />&#10;  <path
   class="fil1"
   d="M 2.0482061,2.3562913 H 2.7436805 2.8801213 V 2.4931236 6.4611744 6.598007 H 2.7436805 2.0482061 1.9117656 V 6.4611744 2.4931236 2.3562913 Z M 2.6072398,2.6299574 H 2.1846469 v 3.6943962 h 0.4225929 z"
   id="path8"
   style="stroke-width:1" />&#10;  <path
   class="fil1"
   d="M 3.276146,3.4509357 H 3.9716203 4.1080611 V 3.5877681 6.4611873 6.5980198 H 3.9716203 3.276146 3.1397052 V 6.4611873 3.5877681 3.4509357 Z M 3.8351796,3.7246018 H 3.4125867 v 2.5997518 h 0.4225929 z"
   id="path9"
   style="stroke-width:1" />&#10;  <polygon
   class="fil2"
   points="1.81333,5.65333 1.81333,3.62667 1.48295,3.62667 1.48295,5.65333 "
   id="polygon9"
   transform="matrix(1.279104,0,0,1.2827764,-0.94013875,-0.92760355)"
   style="stroke-width:0.780677" />&#10;  <polygon
   class="fil3"
   points="2.44295,2.77333 2.44295,5.65333 2.77333,5.65333 2.77333,2.77333 "
   id="polygon10"
   transform="matrix(1.279104,0,0,1.2827764,-0.94013875,-0.92760355)"
   style="stroke-width:0.780677" />&#10;  <polygon
   class="fil4"
   points="3.40295,3.62667 3.40295,5.65333 3.73333,5.65333 3.73333,3.62667 "
   id="polygon11"
   transform="matrix(1.279104,0,0,1.2827764,-0.94013875,-0.92760355)"
   style="stroke-width:0.780677" />&#10; </g>&#10; <rect
   class="fil5"
   width="8.732008"
   height="8.7570782"
   id="rect11"
   x="-0.9401387"
   y="-0.92760354"
   style="stroke-width:1" />&#10;</svg>
