<?xml version="1.0" encoding="UTF-8" standalone="no"?>
<svg
   viewBox="0 0 64 64"
   version="1.1"
   id="svg19"
   sodipodi:docname="reshot-icon-search-insurance.svg"
   inkscape:version="1.3 (0e150ed6c4, 2023-07-21)"
   xmlns:inkscape="http://www.inkscape.org/namespaces/inkscape"
   xmlns:sodipodi="http://sodipodi.sourceforge.net/DTD/sodipodi-0.dtd"
   xmlns="http://www.w3.org/2000/svg"
   xmlns:svg="http://www.w3.org/2000/svg">
  <sodipodi:namedview
     id="namedview19"
     pagecolor="#ffffff"
     bordercolor="#111111"
     borderopacity="1"
     inkscape:showpageshadow="0"
     inkscape:pageopacity="0"
     inkscape:pagecheckerboard="1"
     inkscape:deskcolor="#d1d1d1"
     inkscape:zoom="12.15625"
     inkscape:cx="32"
     inkscape:cy="32"
     inkscape:window-width="1920"
     inkscape:window-height="988"
     inkscape:window-x="0"
     inkscape:window-y="0"
     inkscape:window-maximized="1"
     inkscape:current-layer="svg19" />
  <defs
     id="defs1">
    <style
       id="style1">.cls-1{fill:#5b97c4;}.cls-2{fill:#ffb248;}.cls-3{fill:#f79341;}.cls-4{fill:#8cbce7;}.cls-5{fill:#d94747;}.cls-6{fill:#bce2ff;}.cls-7{fill:#2b2b4c;}</style>
  </defs>
  <title
     id="title1">Search Insurance</title>
  <g
     id="Search_Insurance"
     data-name="Search Insurance"
     transform="matrix(1.2725355,0,0,1.2583778,-8.2535053,-8.3845515)"
     style="stroke-width:0.790241">
    <path
       class="cls-1"
       d="m 46,17 v 11.16 c 0,0.26 0,0.53 0,0.79 0,0.26 0,0.53 0,0.79 A 24.37,24.37 0 0 1 45.52,33 c -0.05,0.26 -0.1,0.53 -0.17,0.79 -0.19,0.79 -0.41,1.56 -0.66,2.32 -0.14,0.42 -0.29,0.84 -0.46,1.25 a 25.31,25.31 0 0 1 -4.93,7.79 c -0.32,0.34 -0.65,0.68 -1,1 A 25.08,25.08 0 0 1 35,48.81 v 0 c 0,0 0,0 0,0 -0.29,0.19 -0.58,0.38 -0.87,0.54 l -0.61,0.37 c -0.34,0.21 -0.69,0.4 -1,0.58 L 31.18,51 30.75,51.19 C 30.18,51.44 29.6,51.66 29,51.86 L 28,51.5 27.24,51.19 26.82,51 25.54,50.39 25.11,50.15 C 24.69,49.93 24.28,49.69 23.88,49.44 L 23.51,49.21 23,48.82 v 0 a 25.19,25.19 0 0 1 -7.63,-8.22 20.06,20.06 0 0 1 -0.93,-1.78 24.92,24.92 0 0 0 4.56,4 v 0 l 0.54,0.34 0.37,0.23 c 0.4,0.25 0.81,0.49 1.23,0.71 l 0.43,0.24 1.28,0.61 0.43,0.19 c 0.57,0.24 1.15,0.47 1.75,0.67 0.6,-0.2 1.18,-0.43 1.75,-0.67 l 0.43,-0.19 0.11,-0.05 1.17,-0.56 0.43,-0.24 c 0.42,-0.22 0.83,-0.46 1.23,-0.71 l 0.37,-0.23 0.54,-0.34 v 0 A 25.11,25.11 0 0 0 41.94,23.74 c 0,-0.52 0.06,-1 0.06,-1.58 v -6.28 z"
       id="path1"
       style="stroke-width:0.790241" />
    <path
       class="cls-2"
       d="m 50,14 v 14.16 a 29,29 0 0 1 -0.49,5.3 11.14,11.14 0 0 0 -3.57,-3.72 c 0,-0.52 0.06,-1 0.06,-1.58 V 17 L 29,12.16 12,17 v 11.16 a 25.06,25.06 0 0 0 17,23.65 24.77,24.77 0 0 0 6,-3 11,11 0 0 0 5,1.19 v 0 A 28.9,28.9 0 0 1 29,56 29,29 0 0 1 8,28.16 V 14 L 29,8 Z"
       id="path2"
       style="stroke-width:0.790241" />
    <path
       class="cls-3"
       d="m 29,8 21,6 v 14.16 a 29,29 0 0 1 -0.49,5.3 11.14,11.14 0 0 0 -3.57,-3.72 c 0,-0.52 0.06,-1 0.06,-1.58 V 17 L 29,12.16 Z"
       id="path3"
       style="stroke-width:0.790241" />
    <path
       class="cls-3"
       d="m 29,51.81 a 24.77,24.77 0 0 0 6,-3 11,11 0 0 0 5,1.19 v 0 a 28.9,28.9 0 0 1 -11,6 z"
       id="path4"
       style="stroke-width:0.790241" />
    <path
       class="cls-4"
       d="m 25.11,50.1 0.43,0.24 A 22.83,22.83 0 0 1 23,48.82 l 0.54,0.34 0.37,0.23 c 0.37,0.25 0.78,0.49 1.2,0.71 z"
       id="path5"
       style="stroke-width:0.790241" />
    <path
       class="cls-4"
       d="M 35,48.81 A 25.08,25.08 0 0 0 38.3,46.13 24.2,24.2 0 0 1 35,48.82 Z"
       id="path6"
       style="stroke-width:0.790241" />
    <path
       class="cls-4"
       d="m 39.3,45.12 a 25.31,25.31 0 0 0 4.93,-7.79 24.76,24.76 0 0 1 -4.93,7.79 z"
       id="path7"
       style="stroke-width:0.790241" />
    <path
       class="cls-4"
       d="m 44.69,36.08 c 0.25,-0.76 0.47,-1.53 0.66,-2.32 a 23.55,23.55 0 0 1 -0.66,2.32 z"
       id="path8"
       style="stroke-width:0.790241" />
    <path
       class="cls-4"
       d="M 45.94,29.74 A 21.62,21.62 0 0 1 45.52,33 24.37,24.37 0 0 0 45.94,29.74 Z"
       id="path9"
       style="stroke-width:0.790241" />
    <path
       class="cls-4"
       d="m 42,15.88 v 6.28 c 0,0.53 0,1.06 -0.06,1.58 A 25.11,25.11 0 0 1 31,42.81 v 0 l -0.54,0.34 -0.37,0.23 c -0.4,0.25 -0.81,0.49 -1.23,0.71 l -0.43,0.24 -1.17,0.56 -0.11,0.05 -0.43,0.19 c -0.57,0.24 -1.15,0.47 -1.75,0.67 -0.6,-0.2 -1.18,-0.43 -1.75,-0.67 L 22.82,45 21.54,44.39 21.11,44.15 C 20.69,43.93 20.28,43.69 19.88,43.44 L 19.51,43.21 19,42.82 v 0 a 24.92,24.92 0 0 1 -4.56,-4 24.75,24.75 0 0 1 -2.37,-9.07 c 0,-0.52 -0.06,-1 -0.06,-1.58 V 17 l 17,-4.86 z"
       id="path10"
       style="stroke-width:0.790241" />
    <path
       class="cls-5"
       d="m 55,54 a 2,2 0 0 1 -2.83,0 L 46.23,48.06 A 10.87,10.87 0 0 1 40.05,50 v 0 A 11,11 0 1 1 51,39 10.86,10.86 0 0 1 49.06,45.23 L 55,51.17 A 2,2 0 0 1 55,54 Z"
       id="path11"
       style="stroke-width:0.790241" />
    <path
       class="cls-4"
       d="M 47,39 A 7,7 0 1 1 43.22,32.78 7,7 0 0 1 47,39 Z"
       id="path12"
       style="stroke-width:0.790241" />
    <path
       class="cls-6"
       d="M 44,36 A 7,7 0 0 1 33.78,42.22 7,7 0 0 1 43.22,32.78 7,7 0 0 1 44,36 Z"
       id="path13"
       style="stroke-width:0.790241" />
    <path
       class="cls-7"
       d="M 29,57 A 0.8,0.8 0 0 1 28.73,57 30.07,30.07 0 0 1 7,28.16 V 14 a 1,1 0 0 1 0.73,-1 l 7.09,-2 a 1,1 0 0 1 0.54,1.92 L 9,14.75 V 28.16 A 28.08,28.08 0 0 0 29,55 28,28 0 0 0 37.53,50.78 11.21,11.21 0 0 1 35.11,50 a 25.8,25.8 0 0 1 -5.79,2.8 1,1 0 0 1 -0.64,0 25.59,25.59 0 0 1 -8,-4.41 1,1 0 0 1 -0.42,-0.81 1,1 0 0 1 1,-1 v 0 a 1,1 0 0 1 0.63,0.22 23.41,23.41 0 0 0 7.1,4 23.61,23.61 0 0 0 5.48,-2.8 1,1 0 0 1 1,-0.06 A 10.12,10.12 0 0 0 40,49 1,1 0 0 1 41,49.65 1,1 0 0 1 40.75,50.75 29.66,29.66 0 0 1 29.28,57 0.9,0.9 0 0 1 29,57 Z"
       id="path14"
       style="stroke-width:0.790241" />
    <path
       class="cls-7"
       d="M 18.4,45.8 A 1,1 0 0 1 17.66,45.47 25.87,25.87 0 0 1 11,28.16 V 17 a 1,1 0 0 1 0.73,-1 l 17,-4.86 a 1,1 0 0 1 0.54,0 l 17,4.86 A 1,1 0 0 1 47,17 v 11.16 c 0,0.36 0,0.72 0,1.07 a 12.61,12.61 0 0 1 1.89,1.68 C 49,30 49,29.08 49,28.16 V 14.75 L 29,9 18.24,12.12 A 1,1 0 0 1 17.68,10.2 L 28.72,7 a 1,1 0 0 1 0.55,0 l 21,6 A 1,1 0 0 1 51,14 v 14.16 a 29.65,29.65 0 0 1 -0.51,5.48 1,1 0 0 1 -0.81,0.8 1,1 0 0 1 -1,-0.47 10.23,10.23 0 0 0 -3.25,-3.39 1,1 0 0 1 -0.46,-0.92 c 0,-0.49 0.06,-1 0.06,-1.5 V 17.77 L 29,13.2 13,17.77 v 10.39 a 23.89,23.89 0 0 0 6.14,16 1,1 0 0 1 -0.07,1.41 1,1 0 0 1 -0.67,0.23 z"
       id="path15"
       style="stroke-width:0.790241" />
    <path
       class="cls-7"
       d="m 29,52.81 a 1.19,1.19 0 0 1 -0.32,-0.05 25.59,25.59 0 0 1 -8,-4.41 1,1 0 0 1 -0.42,-0.81 1,1 0 0 1 1,-1 v 0 a 1,1 0 0 1 0.63,0.22 23.41,23.41 0 0 0 7.1,4 22.68,22.68 0 0 0 4.12,-1.91 12,12 0 0 1 0.48,-20 1.0016986,1.0016986 0 1 1 1.06,1.7 10,10 0 0 0 0.82,17.38 1,1 0 0 1 0.55,0.83 1,1 0 0 1 -0.44,0.89 25.83,25.83 0 0 1 -6.27,3.11 1.13,1.13 0 0 1 -0.31,0.05 z"
       id="path16"
       style="stroke-width:0.790241" />
    <path
       class="cls-7"
       d="M 18.4,45.8 A 1,1 0 0 1 17.66,45.47 25.87,25.87 0 0 1 11,28.16 V 17 a 1,1 0 0 1 0.73,-1 l 17,-4.86 a 1,1 0 0 1 0.54,0 l 17,4.86 A 1,1 0 0 1 47,17 v 11.16 c 0,0.56 0,1.11 -0.06,1.66 A 1,1 0 0 1 45.4,30.58 10,10 0 0 0 40,29 a 9.72,9.72 0 0 0 -2,0.19 1.0198039,1.0198039 0 1 1 -0.4,-2 12.21,12.21 0 0 1 7.36,0.86 V 17.77 L 29,13.2 13,17.77 v 10.39 a 23.89,23.89 0 0 0 6.14,16 1,1 0 0 1 -0.07,1.41 1,1 0 0 1 -0.67,0.23 z"
       id="path17"
       style="stroke-width:0.790241" />
    <path
       class="cls-7"
       d="M 53.58,55.58 A 3,3 0 0 1 51.46,54.71 L 46.09,49.34 A 11.9,11.9 0 0 1 40.09,51 12,12 0 0 1 28,39 a 11.92,11.92 0 0 1 5.6,-10.15 1.0016986,1.0016986 0 1 1 1.06,1.7 10,10 0 0 0 0.82,17.38 10.12,10.12 0 0 0 4.52,1.07 10,10 0 0 0 5.66,-1.76 1,1 0 0 1 1.28,0.11 l 5.94,5.94 a 1,1 0 0 0 1.7,-0.71 1,1 0 0 0 -0.29,-0.7 L 48.35,45.94 A 1,1 0 0 1 48.24,44.66 9.9,9.9 0 0 0 50,39 10.06,10.06 0 0 0 48.65,34 10.29,10.29 0 0 0 45.4,30.62 10,10 0 0 0 40,29 9.72,9.72 0 0 0 38,29.19 1.0198039,1.0198039 0 1 1 37.6,27.19 12.26,12.26 0 0 1 40,27 12,12 0 0 1 50.34,45.09 l 5.37,5.37 a 3,3 0 0 1 -2.13,5.12 z"
       id="path18"
       style="stroke-width:0.790241" />
    <path
       class="cls-7"
       d="m 39,46.92 h -0.14 a 8,8 0 1 1 4.45,-0.63 1,1 0 0 1 -0.82,-1.82 6,6 0 1 0 -3.35,0.47 1.002447,1.002447 0 0 1 -0.14,2 z"
       id="path19"
       style="stroke-width:0.790241" />
  </g>
</svg>
