<?xml version="1.0" encoding="UTF-8" standalone="no"?>
<!-- Generator: Adobe Illustrator 17.0.0, SVG Export Plug-In . SVG Version: 6.00 Build 0)  -->

<svg
   version="1.1"
   x="0px"
   y="0px"
   width="512px"
   height="512px"
   viewBox="0 0 512 512"
   enable-background="new 0 0 512 512"
   xml:space="preserve"
   id="svg49"
   sodipodi:docname="reshot-icon-hotel.svg"
   inkscape:version="1.3 (0e150ed6c4, 2023-07-21)"
   xmlns:inkscape="http://www.inkscape.org/namespaces/inkscape"
   xmlns:sodipodi="http://sodipodi.sourceforge.net/DTD/sodipodi-0.dtd"
   xmlns="http://www.w3.org/2000/svg"
   xmlns:svg="http://www.w3.org/2000/svg"><defs
   id="defs49" /><sodipodi:namedview
   id="namedview49"
   pagecolor="#ffffff"
   bordercolor="#111111"
   borderopacity="1"
   inkscape:showpageshadow="0"
   inkscape:pageopacity="0"
   inkscape:pagecheckerboard="1"
   inkscape:deskcolor="#d1d1d1"
   inkscape:zoom="1.5195312"
   inkscape:cx="256"
   inkscape:cy="308.64781"
   inkscape:window-width="1920"
   inkscape:window-height="988"
   inkscape:window-x="0"
   inkscape:window-y="0"
   inkscape:window-maximized="1"
   inkscape:current-layer="svg49" />&#10;<g
   id="famous_places">&#10;	<g
   id="Pyramid">&#10;	</g>&#10;	<g
   id="Colloseum">&#10;	</g>&#10;	<g
   id="Mount_Fuji">&#10;	</g>&#10;	<g
   id="Great_Wall_of_China">&#10;	</g>&#10;	<g
   id="Stonehenge">&#10;	</g>&#10;	<g
   id="Golden_Gate_Bridge">&#10;	</g>&#10;	<g
   id="Christ_the_Redeemer">&#10;	</g>&#10;	<g
   id="Statue_of_Liberty">&#10;	</g>&#10;	<g
   id="Taj_Mahal">&#10;	</g>&#10;	<g
   id="Eiffel_tower">&#10;	</g>&#10;</g>&#10;<g
   id="camping">&#10;	<g
   id="mug">&#10;	</g>&#10;	<g
   id="hook">&#10;	</g>&#10;	<g
   id="Swiss_knife">&#10;	</g>&#10;	<g
   id="flashlight">&#10;	</g>&#10;	<g
   id="lantern">&#10;	</g>&#10;	<g
   id="campfire">&#10;	</g>&#10;	<g
   id="beanie">&#10;	</g>&#10;	<g
   id="rope">&#10;	</g>&#10;	<g
   id="boot">&#10;	</g>&#10;	<g
   id="axe">&#10;	</g>&#10;</g>&#10;<g
   id="hotel_1_">&#10;	<g
   id="towel">&#10;	</g>&#10;	<g
   id="phone">&#10;	</g>&#10;	<g
   id="pool">&#10;	</g>&#10;	<g
   id="food_service">&#10;	</g>&#10;	<g
   id="wifi">&#10;	</g>&#10;	<g
   id="bed">&#10;	</g>&#10;	<g
   id="door">&#10;	</g>&#10;	<g
   id="key">&#10;	</g>&#10;	<g
   id="do_not_disturb">&#10;	</g>&#10;	<g
   id="bell">&#10;	</g>&#10;</g>&#10;<g
   id="winter">&#10;	<g
   id="snowman">&#10;	</g>&#10;	<g
   id="snow_mountain">&#10;	</g>&#10;	<g
   id="reindeer">&#10;	</g>&#10;	<g
   id="winter_tree">&#10;	</g>&#10;	<g
   id="lift">&#10;	</g>&#10;	<g
   id="beanie__x26__google">&#10;	</g>&#10;	<g
   id="ski">&#10;	</g>&#10;	<g
   id="snowboard">&#10;	</g>&#10;	<g
   id="snowboading">&#10;	</g>&#10;	<g
   id="skiing">&#10;	</g>&#10;</g>&#10;<g
   id="general_travelling"
   transform="matrix(1.5401976,0,0,1.4229566,-188.14306,-111.5221)"
   style="stroke-width:0.675485">&#10;	<g
   id="dinner_set"
   style="stroke-width:0.675485">&#10;	</g>&#10;	<g
   id="polaroid"
   style="stroke-width:0.675485">&#10;	</g>&#10;	<g
   id="camera"
   style="stroke-width:0.675485">&#10;	</g>&#10;	<g
   id="calendar"
   style="stroke-width:0.675485">&#10;	</g>&#10;	<g
   id="calendar_single"
   style="stroke-width:0.675485">&#10;	</g>&#10;	<g
   id="shopping_bag"
   style="stroke-width:0.675485">&#10;	</g>&#10;	<g
   id="watch"
   style="stroke-width:0.675485">&#10;	</g>&#10;	<g
   id="alarm_clock"
   style="stroke-width:0.675485">&#10;	</g>&#10;	<g
   id="credit_card"
   style="stroke-width:0.675485">&#10;	</g>&#10;	<g
   id="road_sign"
   style="stroke-width:0.675485">&#10;	</g>&#10;	<g
   id="hotel"
   style="stroke-width:0.675485">&#10;		<g
   id="g1"
   style="stroke-width:0.675485">&#10;			<path
   fill="#2d415a"
   d="m 410,313.937 h -38 c -2.762,0 -5,-2.238 -5,-5 0,-2.762 2.238,-5 5,-5 h 33 v -112 h -27 c -2.762,0 -5,-2.238 -5,-5 0,-2.762 2.238,-5 5,-5 h 32 c 2.762,0 5,2.238 5,5 v 122 c 0,2.762 -2.238,5 -5,5 z"
   id="path1"
   style="stroke-width:0.675485" />&#10;		</g>&#10;		<path
   fill="#e3e3e3"
   d="m 443.272,327.437 h -38.651 c -4.25,0 -7.695,-3.445 -7.695,-7.695 V 171.209 c 0,-4.25 3.445,-7.695 7.695,-7.695 h 38.651 c 4.25,0 7.695,3.445 7.695,7.695 v 148.533 c 0,4.25 -3.445,7.695 -7.695,7.695 z"
   id="path2"
   style="stroke-width:0.675485" />&#10;		<path
   fill="#ff6650"
   d="m 404.621,322.437 c -1.486,0 -2.695,-1.209 -2.695,-2.694 V 171.21 c 0,-1.486 1.209,-2.695 2.695,-2.695 h 38.651 c 1.485,0 2.694,1.209 2.694,2.695 v 148.533 c 0,1.485 -1.209,2.694 -2.694,2.694 z"
   id="path3"
   style="stroke-width:0.675485" />&#10;		<g
   id="g8"
   style="stroke-width:0.675485">&#10;			<path
   fill="#ffffff"
   d="m 419.786,175.389 v 7.222 h 8.348 v -7.222 h 2.254 v 17.261 h -2.254 v -8.093 h -8.348 v 8.093 h -2.228 v -17.261 z"
   id="path4"
   style="stroke-width:0.675485" />&#10;			<path
   fill="#ffffff"
   d="m 431.834,214.568 c 0,5.941 -3.611,9.092 -8.016,9.092 -4.559,0 -7.76,-3.535 -7.76,-8.759 0,-5.48 3.406,-9.065 8.016,-9.065 4.712,0 7.76,3.61 7.76,8.732 z m -13.394,0.282 c 0,3.688 1.998,6.991 5.506,6.991 3.534,0 5.532,-3.253 5.532,-7.171 0,-3.432 -1.793,-7.017 -5.506,-7.017 -3.688,0.001 -5.532,3.407 -5.532,7.197 z"
   id="path5"
   style="stroke-width:0.675485" />&#10;			<path
   fill="#ffffff"
   d="m 422.819,238.74 h -5.25 v -1.896 h 12.779 v 1.896 h -5.275 v 15.366 h -2.254 z"
   id="path6"
   style="stroke-width:0.675485" />&#10;			<path
   fill="#ffffff"
   d="m 428.543,276.742 h -6.709 v 6.223 h 7.478 v 1.869 h -9.706 v -17.261 h 9.322 v 1.869 h -7.094 v 5.455 h 6.709 z"
   id="path7"
   style="stroke-width:0.675485" />&#10;			<path
   fill="#ffffff"
   d="m 419.862,298.303 h 2.228 v 15.391 h 7.376 v 1.869 h -9.604 z"
   id="path8"
   style="stroke-width:0.675485" />&#10;		</g>&#10;		<g
   id="g49"
   style="stroke-width:0.675485">&#10;			<path
   fill="#ffd161"
   d="M 374.417,432.604 H 137.583 c -4.74,0 -8.583,-3.843 -8.583,-8.583 V 119.187 c 0,-4.74 3.843,-8.583 8.583,-8.583 h 236.833 c 4.74,0 8.583,3.843 8.583,8.583 V 424.02 c 10e-4,4.741 -3.842,8.584 -8.582,8.584 z"
   id="path9"
   style="stroke-width:0.675485" />&#10;			<path
   fill="#54b3af"
   d="M 318.208,127.437 H 193.792 c -3.613,0 -6.542,-2.929 -6.542,-6.542 V 110.09 c 0,-3.613 2.929,-6.542 6.542,-6.542 h 124.417 c 3.613,0 6.542,2.929 6.542,6.542 v 10.805 c -10e-4,3.614 -2.93,6.542 -6.543,6.542 z"
   id="path10"
   style="stroke-width:0.675485" />&#10;			<g
   id="g12"
   style="stroke-width:0.675485">&#10;				<path
   fill="#2d415a"
   d="m 222,385.437 c 0,2.485 -2.015,4.5 -4.5,4.5 h -20 c -2.485,0 -4.5,-2.015 -4.5,-4.5 v -25 c 0,-2.485 2.015,-4.5 4.5,-4.5 h 20 c 2.485,0 4.5,2.015 4.5,4.5 z"
   id="path11"
   style="stroke-width:0.675485" />&#10;				<rect
   x="198.33299"
   y="360.93701"
   fill="#ffb561"
   width="19"
   height="24"
   id="rect11"
   style="stroke-width:0.675485" />&#10;				<path
   fill="#2d415a"
   d="m 321,385.437 c 0,2.485 -2.015,4.5 -4.5,4.5 h -20 c -2.485,0 -4.5,-2.015 -4.5,-4.5 v -25 c 0,-2.485 2.015,-4.5 4.5,-4.5 h 20 c 2.485,0 4.5,2.015 4.5,4.5 z"
   id="path12"
   style="stroke-width:0.675485" />&#10;				<rect
   x="297.33301"
   y="360.93701"
   fill="#ffb561"
   width="19"
   height="24"
   id="rect12"
   style="stroke-width:0.675485" />&#10;			</g>&#10;			<rect
   x="232.272"
   y="355.93701"
   fill="#228273"
   width="47.456001"
   height="76.667"
   id="rect13"
   style="stroke-width:0.675485" />&#10;			<rect
   x="232.272"
   y="355.93701"
   fill="#2fb49f"
   width="23.728001"
   height="76.667"
   id="rect14"
   style="stroke-width:0.675485" />&#10;			<g
   id="g40"
   style="stroke-width:0.675485">&#10;				<g
   id="g19"
   style="stroke-width:0.675485">&#10;					<path
   fill="#2d415a"
   d="m 172,164.437 c 0,2.485 -2.015,4.5 -4.5,4.5 h -20 c -2.485,0 -4.5,-2.015 -4.5,-4.5 v -25 c 0,-2.485 2.015,-4.5 4.5,-4.5 h 20 c 2.485,0 4.5,2.015 4.5,4.5 z"
   id="path14"
   style="stroke-width:0.675485" />&#10;					<rect
   x="148"
   y="139.937"
   fill="#6febe7"
   width="19"
   height="24"
   id="rect15"
   style="stroke-width:0.675485" />&#10;					<path
   fill="#2d415a"
   d="m 222,164.437 c 0,2.485 -2.015,4.5 -4.5,4.5 h -20 c -2.485,0 -4.5,-2.015 -4.5,-4.5 v -25 c 0,-2.485 2.015,-4.5 4.5,-4.5 h 20 c 2.485,0 4.5,2.015 4.5,4.5 z"
   id="path15"
   style="stroke-width:0.675485" />&#10;					<rect
   x="198"
   y="139.937"
   fill="#54b3af"
   width="19"
   height="24"
   id="rect16"
   style="stroke-width:0.675485" />&#10;					<path
   fill="#2d415a"
   d="m 271,164.437 c 0,2.485 -2.015,4.5 -4.5,4.5 h -20 c -2.485,0 -4.5,-2.015 -4.5,-4.5 v -25 c 0,-2.485 2.015,-4.5 4.5,-4.5 h 20 c 2.485,0 4.5,2.015 4.5,4.5 z"
   id="path16"
   style="stroke-width:0.675485" />&#10;					<rect
   x="247.33299"
   y="139.937"
   fill="#ffb561"
   width="19"
   height="24"
   id="rect17"
   style="stroke-width:0.675485" />&#10;					<path
   fill="#2d415a"
   d="m 321,164.437 c 0,2.485 -2.015,4.5 -4.5,4.5 h -20 c -2.485,0 -4.5,-2.015 -4.5,-4.5 v -25 c 0,-2.485 2.015,-4.5 4.5,-4.5 h 20 c 2.485,0 4.5,2.015 4.5,4.5 z"
   id="path17"
   style="stroke-width:0.675485" />&#10;					<rect
   x="297"
   y="139.937"
   fill="#54b3af"
   width="19"
   height="24"
   id="rect18"
   style="stroke-width:0.675485" />&#10;					<path
   fill="#2d415a"
   d="m 371,164.437 c 0,2.485 -2.015,4.5 -4.5,4.5 h -20 c -2.485,0 -4.5,-2.015 -4.5,-4.5 v -25 c 0,-2.485 2.015,-4.5 4.5,-4.5 h 20 c 2.485,0 4.5,2.015 4.5,4.5 z"
   id="path18"
   style="stroke-width:0.675485" />&#10;					<rect
   x="347"
   y="139.937"
   fill="#6febe7"
   width="19"
   height="24"
   id="rect19"
   style="stroke-width:0.675485" />&#10;				</g>&#10;				<g
   id="g24"
   style="stroke-width:0.675485">&#10;					<path
   fill="#2d415a"
   d="m 172,207.437 c 0,2.485 -2.015,4.5 -4.5,4.5 h -20 c -2.485,0 -4.5,-2.015 -4.5,-4.5 v -25 c 0,-2.485 2.015,-4.5 4.5,-4.5 h 20 c 2.485,0 4.5,2.015 4.5,4.5 z"
   id="path19"
   style="stroke-width:0.675485" />&#10;					<rect
   x="148"
   y="182.937"
   fill="#54b3af"
   width="19"
   height="24"
   id="rect20"
   style="stroke-width:0.675485" />&#10;					<path
   fill="#2d415a"
   d="m 222,207.437 c 0,2.485 -2.015,4.5 -4.5,4.5 h -20 c -2.485,0 -4.5,-2.015 -4.5,-4.5 v -25 c 0,-2.485 2.015,-4.5 4.5,-4.5 h 20 c 2.485,0 4.5,2.015 4.5,4.5 z"
   id="path20"
   style="stroke-width:0.675485" />&#10;					<rect
   x="198.33299"
   y="182.937"
   fill="#ffb561"
   width="19"
   height="24"
   id="rect21"
   style="stroke-width:0.675485" />&#10;					<path
   fill="#2d415a"
   d="m 271,207.437 c 0,2.485 -2.015,4.5 -4.5,4.5 h -20 c -2.485,0 -4.5,-2.015 -4.5,-4.5 v -25 c 0,-2.485 2.015,-4.5 4.5,-4.5 h 20 c 2.485,0 4.5,2.015 4.5,4.5 z"
   id="path21"
   style="stroke-width:0.675485" />&#10;					<rect
   x="247"
   y="182.937"
   fill="#54b3af"
   width="19"
   height="24"
   id="rect22"
   style="stroke-width:0.675485" />&#10;					<path
   fill="#2d415a"
   d="m 321,207.437 c 0,2.485 -2.015,4.5 -4.5,4.5 h -20 c -2.485,0 -4.5,-2.015 -4.5,-4.5 v -25 c 0,-2.485 2.015,-4.5 4.5,-4.5 h 20 c 2.485,0 4.5,2.015 4.5,4.5 z"
   id="path22"
   style="stroke-width:0.675485" />&#10;					<rect
   x="297.33301"
   y="182.937"
   fill="#ffb561"
   width="19"
   height="24"
   id="rect23"
   style="stroke-width:0.675485" />&#10;					<path
   fill="#2d415a"
   d="m 371,207.437 c 0,2.485 -2.015,4.5 -4.5,4.5 h -20 c -2.485,0 -4.5,-2.015 -4.5,-4.5 v -25 c 0,-2.485 2.015,-4.5 4.5,-4.5 h 20 c 2.485,0 4.5,2.015 4.5,4.5 z"
   id="path23"
   style="stroke-width:0.675485" />&#10;					<rect
   x="347"
   y="182.937"
   fill="#54b3af"
   width="19"
   height="24"
   id="rect24"
   style="stroke-width:0.675485" />&#10;				</g>&#10;				<g
   id="g29"
   style="stroke-width:0.675485">&#10;					<path
   fill="#2d415a"
   d="m 172,250.437 c 0,2.485 -2.015,4.5 -4.5,4.5 h -20 c -2.485,0 -4.5,-2.015 -4.5,-4.5 v -25 c 0,-2.485 2.015,-4.5 4.5,-4.5 h 20 c 2.485,0 4.5,2.015 4.5,4.5 z"
   id="path24"
   style="stroke-width:0.675485" />&#10;					<rect
   x="148"
   y="225.937"
   fill="#6febe7"
   width="19"
   height="24"
   id="rect25"
   style="stroke-width:0.675485" />&#10;					<path
   fill="#2d415a"
   d="m 222,250.437 c 0,2.485 -2.015,4.5 -4.5,4.5 h -20 c -2.485,0 -4.5,-2.015 -4.5,-4.5 v -25 c 0,-2.485 2.015,-4.5 4.5,-4.5 h 20 c 2.485,0 4.5,2.015 4.5,4.5 z"
   id="path25"
   style="stroke-width:0.675485" />&#10;					<rect
   x="198"
   y="225.937"
   fill="#54b3af"
   width="19"
   height="24"
   id="rect26"
   style="stroke-width:0.675485" />&#10;					<path
   fill="#2d415a"
   d="m 271,250.437 c 0,2.485 -2.015,4.5 -4.5,4.5 h -20 c -2.485,0 -4.5,-2.015 -4.5,-4.5 v -25 c 0,-2.485 2.015,-4.5 4.5,-4.5 h 20 c 2.485,0 4.5,2.015 4.5,4.5 z"
   id="path26"
   style="stroke-width:0.675485" />&#10;					<rect
   x="247.33299"
   y="225.937"
   fill="#ffb561"
   width="19"
   height="24"
   id="rect27"
   style="stroke-width:0.675485" />&#10;					<path
   fill="#2d415a"
   d="m 321,250.437 c 0,2.485 -2.015,4.5 -4.5,4.5 h -20 c -2.485,0 -4.5,-2.015 -4.5,-4.5 v -25 c 0,-2.485 2.015,-4.5 4.5,-4.5 h 20 c 2.485,0 4.5,2.015 4.5,4.5 z"
   id="path27"
   style="stroke-width:0.675485" />&#10;					<rect
   x="297"
   y="225.937"
   fill="#54b3af"
   width="19"
   height="24"
   id="rect28"
   style="stroke-width:0.675485" />&#10;					<path
   fill="#2d415a"
   d="m 371,250.437 c 0,2.485 -2.015,4.5 -4.5,4.5 h -20 c -2.485,0 -4.5,-2.015 -4.5,-4.5 v -25 c 0,-2.485 2.015,-4.5 4.5,-4.5 h 20 c 2.485,0 4.5,2.015 4.5,4.5 z"
   id="path28"
   style="stroke-width:0.675485" />&#10;					<rect
   x="347"
   y="225.937"
   fill="#6febe7"
   width="19"
   height="24"
   id="rect29"
   style="stroke-width:0.675485" />&#10;				</g>&#10;				<g
   id="g34"
   style="stroke-width:0.675485">&#10;					<path
   fill="#2d415a"
   d="m 172,293.437 c 0,2.485 -2.015,4.5 -4.5,4.5 h -20 c -2.485,0 -4.5,-2.015 -4.5,-4.5 v -25 c 0,-2.485 2.015,-4.5 4.5,-4.5 h 20 c 2.485,0 4.5,2.015 4.5,4.5 z"
   id="path29"
   style="stroke-width:0.675485" />&#10;					<rect
   x="148"
   y="268.93701"
   fill="#54b3af"
   width="19"
   height="24"
   id="rect30"
   style="stroke-width:0.675485" />&#10;					<path
   fill="#2d415a"
   d="m 222,293.437 c 0,2.485 -2.015,4.5 -4.5,4.5 h -20 c -2.485,0 -4.5,-2.015 -4.5,-4.5 v -25 c 0,-2.485 2.015,-4.5 4.5,-4.5 h 20 c 2.485,0 4.5,2.015 4.5,4.5 z"
   id="path30"
   style="stroke-width:0.675485" />&#10;					<rect
   x="198.33299"
   y="268.93701"
   fill="#ffb561"
   width="19"
   height="24"
   id="rect31"
   style="stroke-width:0.675485" />&#10;					<path
   fill="#2d415a"
   d="m 271,293.437 c 0,2.485 -2.015,4.5 -4.5,4.5 h -20 c -2.485,0 -4.5,-2.015 -4.5,-4.5 v -25 c 0,-2.485 2.015,-4.5 4.5,-4.5 h 20 c 2.485,0 4.5,2.015 4.5,4.5 z"
   id="path31"
   style="stroke-width:0.675485" />&#10;					<rect
   x="247"
   y="268.93701"
   fill="#54b3af"
   width="19"
   height="24"
   id="rect32"
   style="stroke-width:0.675485" />&#10;					<path
   fill="#2d415a"
   d="m 321,293.437 c 0,2.485 -2.015,4.5 -4.5,4.5 h -20 c -2.485,0 -4.5,-2.015 -4.5,-4.5 v -25 c 0,-2.485 2.015,-4.5 4.5,-4.5 h 20 c 2.485,0 4.5,2.015 4.5,4.5 z"
   id="path32"
   style="stroke-width:0.675485" />&#10;					<rect
   x="297.33301"
   y="268.93701"
   fill="#ffb561"
   width="19"
   height="24"
   id="rect33"
   style="stroke-width:0.675485" />&#10;					<path
   fill="#2d415a"
   d="m 371,293.437 c 0,2.485 -2.015,4.5 -4.5,4.5 h -20 c -2.485,0 -4.5,-2.015 -4.5,-4.5 v -25 c 0,-2.485 2.015,-4.5 4.5,-4.5 h 20 c 2.485,0 4.5,2.015 4.5,4.5 z"
   id="path33"
   style="stroke-width:0.675485" />&#10;					<rect
   x="347"
   y="268.93701"
   fill="#54b3af"
   width="19"
   height="24"
   id="rect34"
   style="stroke-width:0.675485" />&#10;				</g>&#10;				<g
   id="g39"
   style="stroke-width:0.675485">&#10;					<path
   fill="#2d415a"
   d="m 172,336.437 c 0,2.485 -2.015,4.5 -4.5,4.5 h -20 c -2.485,0 -4.5,-2.015 -4.5,-4.5 v -25 c 0,-2.485 2.015,-4.5 4.5,-4.5 h 20 c 2.485,0 4.5,2.015 4.5,4.5 z"
   id="path34"
   style="stroke-width:0.675485" />&#10;					<rect
   x="148"
   y="311.93701"
   fill="#6febe7"
   width="19"
   height="24"
   id="rect35"
   style="stroke-width:0.675485" />&#10;					<path
   fill="#2d415a"
   d="m 222,336.437 c 0,2.485 -2.015,4.5 -4.5,4.5 h -20 c -2.485,0 -4.5,-2.015 -4.5,-4.5 v -25 c 0,-2.485 2.015,-4.5 4.5,-4.5 h 20 c 2.485,0 4.5,2.015 4.5,4.5 z"
   id="path35"
   style="stroke-width:0.675485" />&#10;					<rect
   x="198"
   y="311.93701"
   fill="#54b3af"
   width="19"
   height="24"
   id="rect36"
   style="stroke-width:0.675485" />&#10;					<path
   fill="#2d415a"
   d="m 271,336.437 c 0,2.485 -2.015,4.5 -4.5,4.5 h -20 c -2.485,0 -4.5,-2.015 -4.5,-4.5 v -25 c 0,-2.485 2.015,-4.5 4.5,-4.5 h 20 c 2.485,0 4.5,2.015 4.5,4.5 z"
   id="path36"
   style="stroke-width:0.675485" />&#10;					<rect
   x="247.33299"
   y="311.93701"
   fill="#ffb561"
   width="19"
   height="24"
   id="rect37"
   style="stroke-width:0.675485" />&#10;					<path
   fill="#2d415a"
   d="m 321,336.437 c 0,2.485 -2.015,4.5 -4.5,4.5 h -20 c -2.485,0 -4.5,-2.015 -4.5,-4.5 v -25 c 0,-2.485 2.015,-4.5 4.5,-4.5 h 20 c 2.485,0 4.5,2.015 4.5,4.5 z"
   id="path37"
   style="stroke-width:0.675485" />&#10;					<rect
   x="297"
   y="311.93701"
   fill="#54b3af"
   width="19"
   height="24"
   id="rect38"
   style="stroke-width:0.675485" />&#10;					<path
   fill="#2d415a"
   d="m 371,336.437 c 0,2.485 -2.015,4.5 -4.5,4.5 h -20 c -2.485,0 -4.5,-2.015 -4.5,-4.5 v -25 c 0,-2.485 2.015,-4.5 4.5,-4.5 h 20 c 2.485,0 4.5,2.015 4.5,4.5 z"
   id="path38"
   style="stroke-width:0.675485" />&#10;					<rect
   x="347"
   y="311.93701"
   fill="#6febe7"
   width="19"
   height="24"
   id="rect39"
   style="stroke-width:0.675485" />&#10;				</g>&#10;			</g>&#10;			<path
   fill="#2d415a"
   d="m 167.833,389.937 h -20 c -2.485,0 -4.5,-2.015 -4.5,-4.5 v -25 c 0,-2.485 2.015,-4.5 4.5,-4.5 h 20 c 2.485,0 4.5,2.015 4.5,4.5 v 25 c 0,2.486 -2.014,4.5 -4.5,4.5 z"
   id="path40"
   style="stroke-width:0.675485" />&#10;			<rect
   x="148"
   y="360.93701"
   fill="#54b3af"
   width="19"
   height="24"
   id="rect40"
   style="stroke-width:0.675485" />&#10;			<path
   fill="#2d415a"
   d="m 366.833,389.937 h -20 c -2.485,0 -4.5,-2.015 -4.5,-4.5 v -25 c 0,-2.485 2.015,-4.5 4.5,-4.5 h 20 c 2.485,0 4.5,2.015 4.5,4.5 v 25 c 0,2.486 -2.014,4.5 -4.5,4.5 z"
   id="path41"
   style="stroke-width:0.675485" />&#10;			<rect
   x="347"
   y="360.93701"
   fill="#54b3af"
   width="19"
   height="24"
   id="rect41"
   style="stroke-width:0.675485" />&#10;			<rect
   x="227.33299"
   y="355.93701"
   fill="#ff6650"
   width="59"
   height="14.5"
   id="rect42"
   style="stroke-width:0.675485" />&#10;			<g
   id="g43"
   style="stroke-width:0.675485">&#10;				<path
   fill="#2d415a"
   d="m 259.225,85.633 3.532,7.157 c 0.524,1.062 1.537,1.797 2.708,1.968 l 7.898,1.148 c 2.95,0.429 4.128,4.054 1.993,6.135 l -5.715,5.571 c -0.848,0.826 -1.234,2.017 -1.034,3.184 l 1.349,7.866 c 0.504,2.938 -2.58,5.179 -5.219,3.792 l -7.064,-3.714 c -1.048,-0.551 -2.3,-0.551 -3.347,0 l -7.064,3.714 c -2.639,1.387 -5.723,-0.853 -5.219,-3.792 l 1.349,-7.866 c 0.2,-1.167 -0.187,-2.357 -1.034,-3.184 l -5.715,-5.571 c -2.135,-2.081 -0.957,-5.706 1.993,-6.135 l 7.898,-1.148 c 1.171,-0.17 2.184,-0.906 2.708,-1.968 l 3.532,-7.157 c 1.32,-2.674 5.132,-2.674 6.451,0 z"
   id="path42"
   style="stroke-width:0.675485" />&#10;				<path
   fill="#ffd161"
   d="m 248.32,111.638 c 0.479,-2.789 -0.445,-5.634 -2.472,-7.609 l -3.679,-3.586 5.083,-0.738 c 2.799,-0.406 5.22,-2.163 6.473,-4.701 l 2.275,-4.609 2.273,4.606 c 1.254,2.54 3.675,4.297 6.475,4.703 l 5.082,0.738 -3.679,3.587 c -2.026,1.975 -2.95,4.819 -2.472,7.609 l 0.868,5.062 -4.547,-2.391 c -1.229,-0.646 -2.612,-0.987 -4.001,-0.987 -1.389,0 -2.771,0.342 -4,0.987 l -4.548,2.391 z"
   id="path43"
   style="stroke-width:0.675485" />&#10;			</g>&#10;			<g
   id="g48"
   style="stroke-width:0.675485">&#10;				<g
   id="g45"
   style="stroke-width:0.675485">&#10;					<path
   fill="#2d415a"
   d="m 217.725,85.633 3.532,7.157 c 0.524,1.062 1.537,1.797 2.708,1.968 l 7.898,1.148 c 2.95,0.429 4.128,4.054 1.993,6.135 l -5.715,5.571 c -0.848,0.826 -1.234,2.017 -1.034,3.184 l 1.349,7.866 c 0.504,2.938 -2.58,5.179 -5.219,3.792 l -7.064,-3.714 c -1.048,-0.551 -2.3,-0.551 -3.347,0 l -7.064,3.714 c -2.639,1.387 -5.723,-0.853 -5.219,-3.792 l 1.349,-7.866 c 0.2,-1.167 -0.187,-2.357 -1.034,-3.184 l -5.715,-5.571 c -2.135,-2.081 -0.957,-5.706 1.993,-6.135 l 7.898,-1.148 c 1.171,-0.17 2.184,-0.906 2.708,-1.968 l 3.532,-7.157 c 1.32,-2.674 5.132,-2.674 6.451,0 z"
   id="path44"
   style="stroke-width:0.675485" />&#10;					<path
   fill="#ffd161"
   d="m 206.32,111.638 c 0.479,-2.789 -0.445,-5.634 -2.472,-7.609 l -3.679,-3.586 5.083,-0.738 c 2.799,-0.406 5.22,-2.163 6.473,-4.701 l 2.275,-4.609 2.273,4.606 c 1.254,2.54 3.675,4.297 6.475,4.703 l 5.082,0.738 -3.679,3.587 c -2.026,1.975 -2.95,4.819 -2.472,7.609 l 0.868,5.062 -4.547,-2.391 c -1.229,-0.646 -2.612,-0.987 -4.001,-0.987 -1.389,0 -2.771,0.342 -4,0.987 l -4.548,2.391 z"
   id="path45"
   style="stroke-width:0.675485" />&#10;				</g>&#10;				<g
   id="g47"
   style="stroke-width:0.675485">&#10;					<path
   fill="#2d415a"
   d="m 300.725,85.633 3.532,7.157 c 0.524,1.062 1.537,1.797 2.708,1.968 l 7.898,1.148 c 2.95,0.429 4.128,4.054 1.993,6.135 l -5.715,5.571 c -0.848,0.826 -1.234,2.017 -1.034,3.184 l 1.349,7.866 c 0.504,2.938 -2.58,5.179 -5.219,3.792 l -7.064,-3.714 c -1.048,-0.551 -2.3,-0.551 -3.347,0 l -7.064,3.714 c -2.639,1.387 -5.723,-0.853 -5.219,-3.792 l 1.349,-7.866 c 0.2,-1.167 -0.187,-2.357 -1.034,-3.184 l -5.715,-5.571 c -2.135,-2.081 -0.957,-5.706 1.993,-6.135 l 7.898,-1.148 c 1.171,-0.17 2.184,-0.906 2.708,-1.968 l 3.532,-7.157 c 1.32,-2.674 5.132,-2.674 6.451,0 z"
   id="path46"
   style="stroke-width:0.675485" />&#10;					<path
   fill="#ffd161"
   d="m 289.32,111.638 c 0.479,-2.789 -0.445,-5.634 -2.472,-7.609 l -3.679,-3.586 5.083,-0.738 c 2.799,-0.406 5.22,-2.163 6.473,-4.701 l 2.275,-4.609 2.273,4.606 c 1.254,2.54 3.675,4.297 6.475,4.703 l 5.082,0.738 -3.679,3.587 c -2.026,1.975 -2.95,4.819 -2.472,7.609 l 0.868,5.062 -4.547,-2.391 c -1.229,-0.646 -2.612,-0.987 -4.001,-0.987 -1.389,0 -2.771,0.342 -4,0.987 l -4.548,2.391 z"
   id="path47"
   style="stroke-width:0.675485" />&#10;				</g>&#10;			</g>&#10;		</g>&#10;	</g>&#10;	<g
   id="money"
   style="stroke-width:0.675485">&#10;	</g>&#10;	<g
   id="sunglass"
   style="stroke-width:0.675485">&#10;	</g>&#10;	<g
   id="cocktail"
   style="stroke-width:0.675485">&#10;	</g>&#10;	<g
   id="compass"
   style="stroke-width:0.675485">&#10;	</g>&#10;	<g
   id="tent"
   style="stroke-width:0.675485">&#10;	</g>&#10;	<g
   id="backpack"
   style="stroke-width:0.675485">&#10;	</g>&#10;	<g
   id="map"
   style="stroke-width:0.675485">&#10;	</g>&#10;	<g
   id="ticket_1_"
   style="stroke-width:0.675485">&#10;	</g>&#10;	<g
   id="passport"
   style="stroke-width:0.675485">&#10;	</g>&#10;	<g
   id="luggage"
   style="stroke-width:0.675485">&#10;	</g>&#10;	<g
   id="globe"
   style="stroke-width:0.675485">&#10;	</g>&#10;	<g
   id="suitcase"
   style="stroke-width:0.675485">&#10;	</g>&#10;</g>&#10;<g
   id="vehicles">&#10;	<g
   id="trailer">&#10;	</g>&#10;	<g
   id="airplane">&#10;	</g>&#10;	<g
   id="yatch">&#10;	</g>&#10;	<g
   id="taxi">&#10;	</g>&#10;	<g
   id="hot_air_ballon">&#10;	</g>&#10;	<g
   id="bus">&#10;	</g>&#10;	<g
   id="train">&#10;	</g>&#10;</g>&#10;<g
   id="summer">&#10;	<g
   id="postcard">&#10;	</g>&#10;	<g
   id="bikini">&#10;	</g>&#10;	<g
   id="flipflop">&#10;	</g>&#10;	<g
   id="plane_around_the_globe">&#10;	</g>&#10;	<g
   id="binocular">&#10;	</g>&#10;	<g
   id="beach_table">&#10;	</g>&#10;	<g
   id="sun_hat">&#10;	</g>&#10;	<g
   id="beach_bag">&#10;	</g>&#10;	<g
   id="sea__x26__wave">&#10;	</g>&#10;	<g
   id="beach">&#10;	</g>&#10;	<g
   id="beach_ball">&#10;	</g>&#10;	<g
   id="jetski">&#10;	</g>&#10;	<g
   id="sandcastle">&#10;	</g>&#10;	<g
   id="lifeguard_male">&#10;	</g>&#10;	<g
   id="lifeguard_female">&#10;	</g>&#10;	<g
   id="lighthouse">&#10;	</g>&#10;	<g
   id="hammok">&#10;	</g>&#10;	<g
   id="beach_chair__x26__umbrella">&#10;	</g>&#10;	<g
   id="lifeguard">&#10;	</g>&#10;	<g
   id="suncream">&#10;	</g>&#10;	<g
   id="starfish">&#10;	</g>&#10;	<g
   id="beach_bar">&#10;	</g>&#10;	<g
   id="bucket__x26__shovel">&#10;	</g>&#10;	<g
   id="palm_tree">&#10;	</g>&#10;	<g
   id="shark_warning">&#10;	</g>&#10;	<g
   id="surfboard">&#10;	</g>&#10;	<g
   id="swimming_trunks">&#10;	</g>&#10;	<g
   id="coconut_drink">&#10;	</g>&#10;	<g
   id="beach_chair__x26__towel">&#10;	</g>&#10;	<g
   id="coconut_tree">&#10;	</g>&#10;</g>&#10;</svg>
